#N canvas 684 82 486 336 10;
#X obj 200 250 wiener~;
#X obj 64 66 noise~;
#X obj 91 242 dac~;
#X obj 120 66 osc~ 110;
#X msg 277 171 window_type hann;
#X msg 277 151 window_type rectangle;
#X msg 277 191 power_spectrum;
#X msg 277 211 amplitude_spectrum;
#X floatatom 200 279 20 0 0 0 - - -, f 20;
#X obj 64 103 *~;
#X obj 121 103 *~;
#X floatatom 141 86 5 0 1 0 - gain_osc -, f 5;
#X floatatom 82 86 5 0 1 0 - gain_noise -, f 5;
#X obj 103 152 +~;
#X obj 347 68 bng 15 250 50 0 empty empty empty 17 7 0 10 -262144 -1
-1;
#X floatatom 339 95 2 0 1 0 - - gain_noise, f 2;
#X floatatom 356 95 2 0 0 0 - - gain_osc, f 2;
#X obj 400 68 bng 15 250 50 0 empty empty empty 17 7 0 10 -262144 -1
-1;
#X floatatom 392 95 2 0 0 0 - - gain_noise, f 2;
#X floatatom 409 95 2 0 1 0 - - gain_osc, f 2;
#X text 322 42 noise;
#X text 392 41 osc;
#X connect 0 0 8 0;
#X connect 1 0 9 0;
#X connect 3 0 10 0;
#X connect 4 0 0 0;
#X connect 5 0 0 0;
#X connect 6 0 0 0;
#X connect 7 0 0 0;
#X connect 9 0 13 0;
#X connect 10 0 13 1;
#X connect 11 0 10 1;
#X connect 12 0 9 1;
#X connect 13 0 0 0;
#X connect 13 0 2 0;
#X connect 13 0 2 1;
#X connect 14 0 15 0;
#X connect 14 0 16 0;
#X connect 17 0 18 0;
#X connect 17 0 19 0;
