#N canvas 727 249 607 460 10;
#X obj 376 147 phasor~;
#X floatatom 375 95 5 0 0 0 - - -, f 5;
#X obj 351 255 blend~;
#X obj 186 396 dac~;
#X msg 444 329 start;
#X msg 453 356 stop;
#X msg 423 304 open ./output.wav;
#X floatatom 11 14 5 0 0 0 - - -, f 5;
#X floatatom 167 310 5 0 0 0 - - -, f 5;
#X obj 197 355 *~;
#X obj 376 175 +~ -0.5;
#X obj 377 204 *~ 2;
#X obj 475 147 phasor~;
#X floatatom 474 95 5 0 0 0 - - -, f 5;
#X obj 475 175 +~ -0.5;
#X obj 476 204 *~ 2;
#X obj 11 94 osc~ 0.429688;
#X obj 474 119 sig~ 220;
#X obj 375 119 sig~ 110;
#X obj 431 390 writesf~ 1;
#X msg 138 7 open ./input.wav;
#X obj 171 97 readsf~ 2;
#X msg 170 30 1;
#X msg 181 52 0;
#X connect 0 0 10 0;
#X connect 1 0 18 0;
#X connect 2 0 9 0;
#X connect 2 0 19 0;
#X connect 4 0 19 0;
#X connect 5 0 19 0;
#X connect 6 0 19 0;
#X connect 7 0 16 0;
#X connect 8 0 9 1;
#X connect 9 0 3 0;
#X connect 9 0 3 1;
#X connect 10 0 11 0;
#X connect 11 0 2 1;
#X connect 12 0 14 0;
#X connect 13 0 17 0;
#X connect 14 0 15 0;
#X connect 15 0 2 2;
#X connect 17 0 12 0;
#X connect 18 0 0 0;
#X connect 20 0 21 0;
#X connect 21 0 2 0;
#X connect 22 0 21 0;
#X connect 23 0 21 0;
